Coordinates
version=1
nRows=15
nColumns=23
inDegrees=yes

Units are S.I. units (second, meters, Newtons, ...)
If the header above contains a line with 'inDegrees', this indicates whether rotational values are in degrees (yes) or radians (no).

endheader
time	pelvis_tilt	pelvis_list	pelvis_rotation	pelvis_tx	pelvis_ty	pelvis_tz	hip_flexion_r	hip_adduction_r	hip_rotation_r	knee_angle_r	knee_angle_r_beta	ankle_angle_r	subtalar_angle_r	mtp_angle_r	hip_flexion_l	hip_adduction_l	hip_rotation_l	knee_angle_l	knee_angle_l_beta	ankle_angle_l	subtalar_angle_l	mtp_angle_l
     15.00000000	     -5.52825320	      3.71610408	      2.27001464	      2.10580826	      0.95097502	      0.97048506	     31.84676045	     -5.89263339	     -0.37998595	     73.39994330	      1.28107068	      0.43167547	    -14.94533767	      0.00000000	      0.28916103	      5.31170066	      0.10720129	     26.32611909	      0.45947746	     16.85371248	      1.60849440	      0.00000000
     15.00666667	     -5.43402076	      2.88847088	      2.28766589	      2.10718513	      0.95536709	      0.97049464	     31.86599296	     -5.22279351	     -1.22630429	     70.76085996	      1.23500999	      0.91570620	    -14.78269954	      0.00000000	     -1.35492936	      4.31982971	      0.00039343	     25.04084571	      0.43704521	     14.49538305	      1.76731948	      0.00000000
     15.01333333	     -5.40603102	      2.11760001	      2.32132351	      2.10857500	      0.95961709	      0.97054238	     31.87617066	     -4.61823801	     -2.09705600	     67.96704421	      1.18624870	      1.33841720	    -14.57016481	      0.00000000	     -2.83616664	      3.38214056	     -0.14636342	     23.86476941	      0.41651880	     11.99298866	      1.87248894	      0.00000000
     15.02000000	     -5.50243375	      1.46968833	      2.27907742	      2.10994072	      0.96354611	      0.97072505	     31.97460710	     -4.07113488	     -2.83666471	     65.07085067	      1.13570059	      1.75938159	    -14.26916993	      0.00000000	     -4.06484528	      2.56951302	     -0.46446980	     22.85259044	      0.39885295	      9.33155014	      1.94090975	      0.00000000
     15.02666667	     -6.44771144	      1.25222682	      2.16292217	      2.11097249	      0.96604796	      0.97108249	     33.09602029	     -3.93302961	     -3.28867290	     62.32844090	      1.08783651	      2.23587811	    -13.84291430	      0.00000000	     -4.13761750	      2.22711255	     -1.00268664	     22.28635905	      0.38897034	      6.92477390	      2.42187553	      0.00000000
     15.03333333	     -5.91701361	      0.46764026	      2.14621887	      2.11258758	      0.97068844	      0.97131637	     32.19381666	     -3.20087186	     -4.18441470	     58.91071572	      1.02818595	      2.45869917	    -13.33805408	      0.00000000	     -5.92559062	      1.25790283	     -1.25549732	     21.34538326	      0.37254722	      3.67680071	      1.97315008	      0.00000000
     15.04000000	     -6.79001181	      0.39450607	      1.97447265	      2.11354931	      0.97297205	      0.97189361	     33.06438024	     -3.10490513	     -4.52333467	     55.89350608	      0.97552571	      2.78272473	    -12.65459231	      0.00000000	     -5.83361791	      1.05423146	     -1.86222188	     21.12799191	      0.36875302	      0.92507320	      2.28914160	      0.00000000
     15.04666667	     -6.61800796	     -0.07738306	      1.97880791	      2.11502133	      0.97668813	      0.97218154	     32.44837920	     -2.68894533	     -5.32995649	     52.36166252	      0.91388341	      3.02869107	    -11.67514932	      0.00000000	     -6.95884347	      0.42503389	     -2.09931749	     20.64014870	      0.36023855	     -2.08613981	      1.77534199	      0.00000000
     15.05333333	     -7.33088816	     -0.03236530	      1.73453050	      2.11587768	      0.97873382	      0.97301231	     32.98189932	     -2.58285749	     -5.52593623	     49.11316621	      0.85718646	      3.28943824	    -10.59998576	      0.00000000	     -6.80658612	      0.33013344	     -2.75194586	     20.78872841	      0.36283176	     -4.79170009	      1.76908500	      0.00000000
     15.06000000	     -7.44675100	     -0.24320613	      1.70587173	      2.11718029	      0.98149681	      0.97344522	     32.59024554	     -2.37467259	     -6.19452580	     45.52874545	      0.79462651	      3.58786384	     -9.00713467	      0.00000000	     -7.33198684	     -0.02515326	     -3.00818549	     20.81269758	      0.36325010	     -7.52441852	      1.32798868	      0.00000000
     15.06666667	     -8.20517091	     -0.01445574	      1.40860322	      2.11786099	      0.98292937	      0.97448386	     33.04755627	     -2.30546098	     -6.11753436	     42.16602436	      0.73593596	      3.81616338	     -7.64192700	      0.00000000	     -6.91056948	      0.07498267	     -3.61362047	     21.33162198	      0.37230704	     -9.95974460	      1.24361500	      0.00000000
     15.07333333	     -8.27845216	     -0.18540596	      1.36817505	      2.11900317	      0.98503088	      0.97512953	     32.49921649	     -2.06486727	     -6.73914441	     38.56582261	      0.67310058	      4.25523093	     -5.35489748	      0.00000000	     -7.17331880	     -0.28271790	     -3.89232576	     21.93192788	      0.38278435	    -12.25946268	      0.73164063	      0.00000000
     15.08000000	     -8.95040713	      0.06687138	      1.02081903	      2.11957939	      0.98583479	      0.97633770	     32.74473807	     -1.88103418	     -6.39894007	     35.19801648	      0.61432128	      4.60415386	     -3.65624542	      0.00000000	     -6.62891516	     -0.16532683	     -4.42736698	     22.85254245	      0.39885211	    -14.34025082	      0.43857533	      0.00000000
     15.08666667	     -9.03274723	     -0.08715387	      0.97028511	      2.12049401	      0.98704608	      0.97716298	     32.13633970	     -1.53075781	     -6.75649205	     31.71775225	      0.55357921	      5.15305390	     -1.21259663	      0.00000000	     -6.56777927	     -0.56023453	     -4.76580825	     24.06355238	      0.41998822	    -16.09298533	      0.06906589	      0.00000000
     15.09333333	     -9.46309098	      0.04533303	      0.65140195	      2.12102965	      0.98724975	      0.97840993	     32.01766512	     -1.18943958	     -6.31233654	     28.51398469	      0.49766292	      5.67841368	      0.73027579	      0.00000000	     -6.05011972	     -0.60485673	     -5.20358125	     25.44997949	      0.44418594	    -17.78468360	     -0.39594557	      0.00000000
